<?xml version="1.0" encoding="UTF-8" standalone="no"?><!DOCTYPE svg PUBLIC "-//W3C//DTD SVG 1.1//EN" "http://www.w3.org/Graphics/SVG/1.1/DTD/svg11.dtd"><!-- Generated by graphviz version 3.0.0 (20220226.1711) --><!-- Title: EntityRelationDiagram Pages: 1 --><svg width="1624pt" height="327pt" viewBox="0.00 0.00 1623.77 327.00" xmlns="http://www.w3.org/2000/svg" xmlns:xlink="http://www.w3.org/1999/xlink"><g id="graph0" class="graph" transform="scale(1 1) rotate(0) translate(4 323)"><title>EntityRelationDiagram</title><polygon fill="white" stroke="transparent" points="-4,4 -4,-323 1619.77,-323 1619.77,4 -4,4"/><text text-anchor="middle" x="807.88" y="-12" font-family="Helvetica,Arial,sans-serif" font-size="25.00">Entity Relation Diagram</text><!-- Ford --><g id="node1" class="node"><title>Ford</title><polygon fill="none" stroke="black" points="322.24,-319 268.24,-319 268.24,-283 322.24,-283 322.24,-319"/><text text-anchor="middle" x="295.24" y="-297.3" font-family="Times New Roman,serif" font-size="14.00">Ford</text></g><!-- attr26b662fdfd0d42ccaa59f49dd0142391 --><g id="node2" class="node"><title>attr26b662fdfd0d42ccaa59f49dd0142391</title><ellipse fill="none" stroke="black" stroke-dasharray="1,5" cx="68.24" cy="-214" rx="68.49" ry="18"/><text text-anchor="middle" x="68.24" y="-210.3" font-family="Times New Roman,serif" font-size="14.00">ManufacturerID</text></g><!-- Ford&#45;&#45;attr26b662fdfd0d42ccaa59f49dd0142391 --><g id="edge1" class="edge"><title>Ford&#45;&#45;attr26b662fdfd0d42ccaa59f49dd0142391</title><path fill="none" stroke="black" d="M267.86,-289.75C227.42,-274.6 151.57,-246.2 105.91,-229.1"/></g><!-- attrf196cb57f9574e11b0f6ed0d20a34108 --><g id="node3" class="node"><title>attrf196cb57f9574e11b0f6ed0d20a34108</title><ellipse fill="none" stroke="black" cx="222.24" cy="-214" rx="67.69" ry="18"/><text text-anchor="middle" x="222.24" y="-210.3" font-family="Times New Roman,serif" font-size="14.00">DateOfCreation</text></g><!-- Ford&#45;&#45;attrf196cb57f9574e11b0f6ed0d20a34108 --><g id="edge2" class="edge"><title>Ford&#45;&#45;attrf196cb57f9574e11b0f6ed0d20a34108</title><path fill="none" stroke="black" d="M280.47,-282.8C267.64,-267.86 249.17,-246.36 236.5,-231.6"/></g><!-- attrd0a49256f38e49e799ac6791987df4e6 --><g id="node4" class="node"><title>attrd0a49256f38e49e799ac6791987df4e6</title><ellipse fill="none" stroke="black" cx="367.24" cy="-214" rx="59.59" ry="18"/><text text-anchor="middle" x="367.24" y="-210.3" font-family="Times New Roman,serif" font-size="14.00">Capitalization</text></g><!-- Ford&#45;&#45;attrd0a49256f38e49e799ac6791987df4e6 --><g id="edge3" class="edge"><title>Ford&#45;&#45;attrd0a49256f38e49e799ac6791987df4e6</title><path fill="none" stroke="black" d="M309.81,-282.8C322.47,-267.86 340.68,-246.36 353.19,-231.6"/></g><!-- rel6c49c07f82d5421ea1479669d8e95236 --><g id="node17" class="node"><title>rel6c49c07f82d5421ea1479669d8e95236</title><polygon fill="lightgrey" stroke="lightgrey" points="509.24,-232 445.06,-214 509.24,-196 573.43,-214 509.24,-232"/><text text-anchor="middle" x="509.24" y="-210.3" font-family="Times New Roman,serif" font-size="14.00">Produces</text></g><!-- Ford&#45;&#45;rel6c49c07f82d5421ea1479669d8e95236 --><g id="edge13" class="edge"><title>Ford&#45;&#45;rel6c49c07f82d5421ea1479669d8e95236</title><path fill="none" stroke="black" d="M322.35,-289.23C364.07,-272.66 443.46,-241.13 484.02,-225.02"/><text text-anchor="middle" x="418.74" y="-253.8" font-family="Times New Roman,serif" font-size="14.00">1</text></g><!-- CarShop --><g id="node5" class="node"><title>CarShop</title><polygon fill="none" stroke="black" points="1446.74,-319 1379.74,-319 1379.74,-283 1446.74,-283 1446.74,-319"/><text text-anchor="middle" x="1413.24" y="-297.3" font-family="Times New Roman,serif" font-size="14.00">CarShop</text></g><!-- attr71d713c776504db8bfd9a4d9fa9e973e --><g id="node6" class="node"><title>attr71d713c776504db8bfd9a4d9fa9e973e</title><ellipse fill="none" stroke="black" cx="1225.24" cy="-214" rx="41.69" ry="18"/><text text-anchor="middle" x="1225.24" y="-210.3" font-family="Times New Roman,serif" font-size="14.00">Address</text></g><!-- CarShop&#45;&#45;attr71d713c776504db8bfd9a4d9fa9e973e --><g id="edge4" class="edge"><title>CarShop&#45;&#45;attr71d713c776504db8bfd9a4d9fa9e973e</title><path fill="none" stroke="black" d="M1379.63,-284.8C1343.51,-268.47 1286.76,-242.81 1253.06,-227.57"/></g><!-- attr2140a4a09e544ca8b7231c70e3958a36 --><g id="node7" class="node"><title>attr2140a4a09e544ca8b7231c70e3958a36</title><ellipse fill="none" stroke="black" cx="1350.24" cy="-214" rx="65.79" ry="18"/><text text-anchor="middle" x="1350.24" y="-210.3" font-family="Times New Roman,serif" font-size="14.00">Working hours</text></g><!-- CarShop&#45;&#45;attr2140a4a09e544ca8b7231c70e3958a36 --><g id="edge5" class="edge"><title>CarShop&#45;&#45;attr2140a4a09e544ca8b7231c70e3958a36</title><path fill="none" stroke="black" d="M1400.49,-282.8C1389.49,-267.95 1373.69,-246.64 1362.76,-231.89"/></g><!-- attra0d21d16888645708e4703f2a2a8f6f5 --><g id="node8" class="node"><title>attra0d21d16888645708e4703f2a2a8f6f5</title><ellipse fill="none" stroke="black" stroke-dasharray="1,5" cx="1476.24" cy="-214" rx="42.49" ry="18"/><text text-anchor="middle" x="1476.24" y="-210.3" font-family="Times New Roman,serif" font-size="14.00">Shop ID</text></g><!-- CarShop&#45;&#45;attra0d21d16888645708e4703f2a2a8f6f5 --><g id="edge6" class="edge"><title>CarShop&#45;&#45;attra0d21d16888645708e4703f2a2a8f6f5</title><path fill="none" stroke="black" d="M1425.99,-282.8C1437.14,-267.76 1453.21,-246.08 1464.16,-231.31"/></g><!-- relb8c938453df04b2aa9f0e6fd22c28bec --><g id="node19" class="node"><title>relb8c938453df04b2aa9f0e6fd22c28bec</title><polygon fill="lightgrey" stroke="lightgrey" points="1576.24,-232 1536.7,-214 1576.24,-196 1615.79,-214 1576.24,-232"/><text text-anchor="middle" x="1576.24" y="-210.3" font-family="Times New Roman,serif" font-size="14.00">Sells</text></g><!-- CarShop&#45;&#45;relb8c938453df04b2aa9f0e6fd22c28bec --><g id="edge17" class="edge"><title>CarShop&#45;&#45;relb8c938453df04b2aa9f0e6fd22c28bec</title><path fill="none" stroke="black" d="M1446.23,-282.8C1480.09,-265.14 1531.52,-238.32 1558.42,-224.29"/><text text-anchor="middle" x="1507.74" y="-253.8" font-family="Times New Roman,serif" font-size="14.00">1</text></g><!-- Nissan --><g id="node9" class="node"><title>Nissan</title><polygon fill="none" stroke="black" points="913.24,-319 859.24,-319 859.24,-283 913.24,-283 913.24,-319"/><text text-anchor="middle" x="886.24" y="-297.3" font-family="Times New Roman,serif" font-size="14.00">Nissan</text></g><!-- attr236c9d9eca894434adf279865164eda4 --><g id="node10" class="node"><title>attr236c9d9eca894434adf279865164eda4</title><ellipse fill="none" stroke="black" stroke-dasharray="1,5" cx="660.24" cy="-214" rx="68.49" ry="18"/><text text-anchor="middle" x="660.24" y="-210.3" font-family="Times New Roman,serif" font-size="14.00">ManufacturerID</text></g><!-- Nissan&#45;&#45;attr236c9d9eca894434adf279865164eda4 --><g id="edge7" class="edge"><title>Nissan&#45;&#45;attr236c9d9eca894434adf279865164eda4</title><path fill="none" stroke="black" d="M858.98,-289.75C818.71,-274.6 743.21,-246.2 697.75,-229.1"/></g><!-- attre1da7fa909074c0fa35bb5e0052fb1b8 --><g id="node11" class="node"><title>attre1da7fa909074c0fa35bb5e0052fb1b8</title><ellipse fill="none" stroke="black" cx="814.24" cy="-214" rx="67.69" ry="18"/><text text-anchor="middle" x="814.24" y="-210.3" font-family="Times New Roman,serif" font-size="14.00">DateOfCreation</text></g><!-- Nissan&#45;&#45;attre1da7fa909074c0fa35bb5e0052fb1b8 --><g id="edge8" class="edge"><title>Nissan&#45;&#45;attre1da7fa909074c0fa35bb5e0052fb1b8</title><path fill="none" stroke="black" d="M871.67,-282.8C859.1,-267.95 841.04,-246.64 828.55,-231.89"/></g><!-- attr24cc252d4fd34b13b8fcc321e1644ec7 --><g id="node12" class="node"><title>attr24cc252d4fd34b13b8fcc321e1644ec7</title><ellipse fill="none" stroke="black" cx="959.24" cy="-214" rx="59.59" ry="18"/><text text-anchor="middle" x="959.24" y="-210.3" font-family="Times New Roman,serif" font-size="14.00">Capitalization</text></g><!-- Nissan&#45;&#45;attr24cc252d4fd34b13b8fcc321e1644ec7 --><g id="edge9" class="edge"><title>Nissan&#45;&#45;attr24cc252d4fd34b13b8fcc321e1644ec7</title><path fill="none" stroke="black" d="M901.02,-282.8C913.85,-267.86 932.31,-246.36 944.99,-231.6"/></g><!-- rel5d8921ce0ef8488d9d263050a518c047 --><g id="node18" class="node"><title>rel5d8921ce0ef8488d9d263050a518c047</title><polygon fill="lightgrey" stroke="lightgrey" points="1101.24,-232 1037.06,-214 1101.24,-196 1165.43,-214 1101.24,-232"/><text text-anchor="middle" x="1101.24" y="-210.3" font-family="Times New Roman,serif" font-size="14.00">Produces</text></g><!-- Nissan&#45;&#45;rel5d8921ce0ef8488d9d263050a518c047 --><g id="edge15" class="edge"><title>Nissan&#45;&#45;rel5d8921ce0ef8488d9d263050a518c047</title><path fill="none" stroke="black" d="M913.47,-289.23C955.4,-272.66 1035.15,-241.13 1075.9,-225.02"/><text text-anchor="middle" x="1010.74" y="-253.8" font-family="Times New Roman,serif" font-size="14.00">1</text></g><!-- Car --><g id="node13" class="node"><title>Car</title><polygon fill="none" stroke="black" points="1128.24,-145 1074.24,-145 1074.24,-109 1128.24,-109 1128.24,-145"/><text text-anchor="middle" x="1101.24" y="-123.3" font-family="Times New Roman,serif" font-size="14.00">Car</text></g><!-- attre76842823c7749418618a05e397c84c4 --><g id="node14" class="node"><title>attre76842823c7749418618a05e397c84c4</title><ellipse fill="none" stroke="black" cx="960.24" cy="-54" rx="34.39" ry="18"/><text text-anchor="middle" x="960.24" y="-50.3" font-family="Times New Roman,serif" font-size="14.00">Model</text></g><!-- Car&#45;&#45;attre76842823c7749418618a05e397c84c4 --><g id="edge10" class="edge"><title>Car&#45;&#45;attre76842823c7749418618a05e397c84c4</title><path fill="none" stroke="black" d="M1074.06,-112.31C1048.13,-99.25 1009.44,-79.77 984.52,-67.23"/></g><!-- attr71a802f61fef49f69cfb084b5a2052a7 --><g id="node15" class="node"><title>attr71a802f61fef49f69cfb084b5a2052a7</title><ellipse fill="none" stroke="black" cx="1101.24" cy="-54" rx="89.08" ry="18"/><text text-anchor="middle" x="1101.24" y="-50.3" font-family="Times New Roman,serif" font-size="14.00">DateOfManufacturing</text></g><!-- Car&#45;&#45;attr71a802f61fef49f69cfb084b5a2052a7 --><g id="edge11" class="edge"><title>Car&#45;&#45;attr71a802f61fef49f69cfb084b5a2052a7</title><path fill="none" stroke="black" d="M1101.24,-108.81C1101.24,-97.65 1101.24,-83.16 1101.24,-72.03"/></g><!-- attr93852992b8524f66a9c6154f6baa2fdc --><g id="node16" class="node"><title>attr93852992b8524f66a9c6154f6baa2fdc</title><ellipse fill="none" stroke="black" stroke-dasharray="1,5" cx="1268.24" cy="-54" rx="59.59" ry="18"/><text text-anchor="middle" x="1268.24" y="-50.3" font-family="Times New Roman,serif" font-size="14.00">SerialNumber</text></g><!-- Car&#45;&#45;attr93852992b8524f66a9c6154f6baa2fdc --><g id="edge12" class="edge"><title>Car&#45;&#45;attr93852992b8524f66a9c6154f6baa2fdc</title><path fill="none" stroke="black" d="M1128.45,-114.43C1157.56,-102.06 1203.77,-82.41 1235.01,-69.13"/></g><!-- rel6c49c07f82d5421ea1479669d8e95236&#45;&#45;Car --><g id="edge14" class="edge"><title>rel6c49c07f82d5421ea1479669d8e95236&#45;&#45;Car</title><path fill="none" stroke="black" d="M541.53,-204.88C554.44,-201.82 569.49,-198.48 583.24,-196 769.81,-162.4 997.01,-138.34 1074.14,-130.64"/><text text-anchor="middle" x="807.24" y="-166.8" font-family="Times New Roman,serif" font-size="14.00">0..n</text></g><!-- rel5d8921ce0ef8488d9d263050a518c047&#45;&#45;Car --><g id="edge16" class="edge"><title>rel5d8921ce0ef8488d9d263050a518c047&#45;&#45;Car</title><path fill="none" stroke="black" d="M1101.24,-195.8C1101.24,-181.05 1101.24,-159.92 1101.24,-145.18"/><text text-anchor="middle" x="1112.24" y="-166.8" font-family="Times New Roman,serif" font-size="14.00">0..n</text></g><!-- relb8c938453df04b2aa9f0e6fd22c28bec&#45;&#45;Car --><g id="edge18" class="edge"><title>relb8c938453df04b2aa9f0e6fd22c28bec&#45;&#45;Car</title><path fill="none" stroke="black" d="M1555.98,-205.07C1547.25,-201.89 1536.85,-198.41 1527.24,-196 1379.06,-158.78 1196.53,-137.7 1128.49,-130.67"/><text text-anchor="middle" x="1458.24" y="-166.8" font-family="Times New Roman,serif" font-size="14.00">0..n</text></g></g></svg>