<?xml version="1.0" encoding="UTF-8" standalone="no"?>
<!DOCTYPE svg PUBLIC "-//W3C//DTD SVG 1.1//EN"
 "http://www.w3.org/Graphics/SVG/1.1/DTD/svg11.dtd">
<!-- Generated by graphviz version 3.0.0 (20220226.1711)
 -->
<!-- Title: EntityRelationDiagram Pages: 1 -->
<svg width="1704pt" height="327pt"
 viewBox="0.00 0.00 1703.77 327.00" xmlns="http://www.w3.org/2000/svg" xmlns:xlink="http://www.w3.org/1999/xlink">
<g id="graph0" class="graph" transform="scale(1 1) rotate(0) translate(4 323)">
<title>EntityRelationDiagram</title>
<polygon fill="white" stroke="transparent" points="-4,4 -4,-323 1699.77,-323 1699.77,4 -4,4"/>
<text text-anchor="middle" x="847.88" y="-12" font-family="Helvetica,Arial,sans-serif" font-size="25.00">Entity Relation Diagram</text>
<!-- Ford -->
<g id="node1" class="node">
<title>Ford</title>
<polygon fill="none" stroke="black" points="322.24,-319 268.24,-319 268.24,-283 322.24,-283 322.24,-319"/>
<text text-anchor="middle" x="295.24" y="-297.3" font-family="Times New Roman,serif" font-size="14.00">Ford</text>
</g>
<!-- attrbf270bf4460744eca8decc1a56b6836b -->
<g id="node2" class="node">
<title>attrbf270bf4460744eca8decc1a56b6836b</title>
<ellipse fill="none" stroke="black" stroke-dasharray="1,5" cx="68.24" cy="-214" rx="68.49" ry="18"/>
<text text-anchor="middle" x="68.24" y="-210.3" font-family="Times New Roman,serif" font-size="14.00">ManufacturerID</text>
</g>
<!-- Ford&#45;&#45;attrbf270bf4460744eca8decc1a56b6836b -->
<g id="edge1" class="edge">
<title>Ford&#45;&#45;attrbf270bf4460744eca8decc1a56b6836b</title>
<path fill="none" stroke="black" d="M267.86,-289.75C227.42,-274.6 151.57,-246.2 105.91,-229.1"/>
</g>
<!-- attr05ad5b71e0f645cab227dd87827435ae -->
<g id="node3" class="node">
<title>attr05ad5b71e0f645cab227dd87827435ae</title>
<ellipse fill="none" stroke="black" cx="222.24" cy="-214" rx="67.69" ry="18"/>
<text text-anchor="middle" x="222.24" y="-210.3" font-family="Times New Roman,serif" font-size="14.00">DateOfCreation</text>
</g>
<!-- Ford&#45;&#45;attr05ad5b71e0f645cab227dd87827435ae -->
<g id="edge2" class="edge">
<title>Ford&#45;&#45;attr05ad5b71e0f645cab227dd87827435ae</title>
<path fill="none" stroke="black" d="M280.47,-282.8C267.64,-267.86 249.17,-246.36 236.5,-231.6"/>
</g>
<!-- attr3adcc8cac09c44a3b1977065b77bdf49 -->
<g id="node4" class="node">
<title>attr3adcc8cac09c44a3b1977065b77bdf49</title>
<ellipse fill="none" stroke="black" cx="367.24" cy="-214" rx="59.59" ry="18"/>
<text text-anchor="middle" x="367.24" y="-210.3" font-family="Times New Roman,serif" font-size="14.00">Capitalization</text>
</g>
<!-- Ford&#45;&#45;attr3adcc8cac09c44a3b1977065b77bdf49 -->
<g id="edge3" class="edge">
<title>Ford&#45;&#45;attr3adcc8cac09c44a3b1977065b77bdf49</title>
<path fill="none" stroke="black" d="M309.81,-282.8C322.47,-267.86 340.68,-246.36 353.19,-231.6"/>
</g>
<!-- rel223db5823e424375a9a16495c3bbb62b -->
<g id="node17" class="node">
<title>rel223db5823e424375a9a16495c3bbb62b</title>
<polygon fill="lightgrey" stroke="lightgrey" points="529.24,-232 444.62,-214 529.24,-196 613.87,-214 529.24,-232"/>
<text text-anchor="middle" x="529.24" y="-210.3" font-family="Times New Roman,serif" font-size="14.00">Manufactures</text>
</g>
<!-- Ford&#45;&#45;rel223db5823e424375a9a16495c3bbb62b -->
<g id="edge13" class="edge">
<title>Ford&#45;&#45;rel223db5823e424375a9a16495c3bbb62b</title>
<path fill="none" stroke="black" d="M322.54,-290.08C366.79,-274.01 453.81,-242.4 499.55,-225.79"/>
<text text-anchor="middle" x="430.74" y="-253.8" font-family="Times New Roman,serif" font-size="14.00">1</text>
</g>
<!-- CarShop -->
<g id="node5" class="node">
<title>CarShop</title>
<polygon fill="none" stroke="black" points="1526.74,-319 1459.74,-319 1459.74,-283 1526.74,-283 1526.74,-319"/>
<text text-anchor="middle" x="1493.24" y="-297.3" font-family="Times New Roman,serif" font-size="14.00">CarShop</text>
</g>
<!-- attr6bbdc4a74079401e81d762f4018a876b -->
<g id="node6" class="node">
<title>attr6bbdc4a74079401e81d762f4018a876b</title>
<ellipse fill="none" stroke="black" cx="1305.24" cy="-214" rx="41.69" ry="18"/>
<text text-anchor="middle" x="1305.24" y="-210.3" font-family="Times New Roman,serif" font-size="14.00">Address</text>
</g>
<!-- CarShop&#45;&#45;attr6bbdc4a74079401e81d762f4018a876b -->
<g id="edge4" class="edge">
<title>CarShop&#45;&#45;attr6bbdc4a74079401e81d762f4018a876b</title>
<path fill="none" stroke="black" d="M1459.63,-284.8C1423.51,-268.47 1366.76,-242.81 1333.06,-227.57"/>
</g>
<!-- attrce137294662743ceb73cf4431fda6e43 -->
<g id="node7" class="node">
<title>attrce137294662743ceb73cf4431fda6e43</title>
<ellipse fill="none" stroke="black" cx="1430.24" cy="-214" rx="65.79" ry="18"/>
<text text-anchor="middle" x="1430.24" y="-210.3" font-family="Times New Roman,serif" font-size="14.00">Working hours</text>
</g>
<!-- CarShop&#45;&#45;attrce137294662743ceb73cf4431fda6e43 -->
<g id="edge5" class="edge">
<title>CarShop&#45;&#45;attrce137294662743ceb73cf4431fda6e43</title>
<path fill="none" stroke="black" d="M1480.49,-282.8C1469.49,-267.95 1453.69,-246.64 1442.76,-231.89"/>
</g>
<!-- attra72148517cf54d8caef2b5cf02641cd1 -->
<g id="node8" class="node">
<title>attra72148517cf54d8caef2b5cf02641cd1</title>
<ellipse fill="none" stroke="black" stroke-dasharray="1,5" cx="1556.24" cy="-214" rx="42.49" ry="18"/>
<text text-anchor="middle" x="1556.24" y="-210.3" font-family="Times New Roman,serif" font-size="14.00">Shop ID</text>
</g>
<!-- CarShop&#45;&#45;attra72148517cf54d8caef2b5cf02641cd1 -->
<g id="edge6" class="edge">
<title>CarShop&#45;&#45;attra72148517cf54d8caef2b5cf02641cd1</title>
<path fill="none" stroke="black" d="M1505.99,-282.8C1517.14,-267.76 1533.21,-246.08 1544.16,-231.31"/>
</g>
<!-- rel5310c50c85504db39ea4d7da85fccc6c -->
<g id="node19" class="node">
<title>rel5310c50c85504db39ea4d7da85fccc6c</title>
<polygon fill="lightgrey" stroke="lightgrey" points="1656.24,-232 1616.7,-214 1656.24,-196 1695.79,-214 1656.24,-232"/>
<text text-anchor="middle" x="1656.24" y="-210.3" font-family="Times New Roman,serif" font-size="14.00">Sells</text>
</g>
<!-- CarShop&#45;&#45;rel5310c50c85504db39ea4d7da85fccc6c -->
<g id="edge17" class="edge">
<title>CarShop&#45;&#45;rel5310c50c85504db39ea4d7da85fccc6c</title>
<path fill="none" stroke="black" d="M1526.23,-282.8C1560.09,-265.14 1611.52,-238.32 1638.42,-224.29"/>
<text text-anchor="middle" x="1587.74" y="-253.8" font-family="Times New Roman,serif" font-size="14.00">1</text>
</g>
<!-- Nissan -->
<g id="node9" class="node">
<title>Nissan</title>
<polygon fill="none" stroke="black" points="953.24,-319 899.24,-319 899.24,-283 953.24,-283 953.24,-319"/>
<text text-anchor="middle" x="926.24" y="-297.3" font-family="Times New Roman,serif" font-size="14.00">Nissan</text>
</g>
<!-- attr5db1399a7f154344b5d4975eaee0a684 -->
<g id="node10" class="node">
<title>attr5db1399a7f154344b5d4975eaee0a684</title>
<ellipse fill="none" stroke="black" stroke-dasharray="1,5" cx="700.24" cy="-214" rx="68.49" ry="18"/>
<text text-anchor="middle" x="700.24" y="-210.3" font-family="Times New Roman,serif" font-size="14.00">ManufacturerID</text>
</g>
<!-- Nissan&#45;&#45;attr5db1399a7f154344b5d4975eaee0a684 -->
<g id="edge7" class="edge">
<title>Nissan&#45;&#45;attr5db1399a7f154344b5d4975eaee0a684</title>
<path fill="none" stroke="black" d="M898.98,-289.75C858.71,-274.6 783.21,-246.2 737.75,-229.1"/>
</g>
<!-- attrce388b88375346f78ff18124a6577574 -->
<g id="node11" class="node">
<title>attrce388b88375346f78ff18124a6577574</title>
<ellipse fill="none" stroke="black" cx="854.24" cy="-214" rx="67.69" ry="18"/>
<text text-anchor="middle" x="854.24" y="-210.3" font-family="Times New Roman,serif" font-size="14.00">DateOfCreation</text>
</g>
<!-- Nissan&#45;&#45;attrce388b88375346f78ff18124a6577574 -->
<g id="edge8" class="edge">
<title>Nissan&#45;&#45;attrce388b88375346f78ff18124a6577574</title>
<path fill="none" stroke="black" d="M911.67,-282.8C899.1,-267.95 881.04,-246.64 868.55,-231.89"/>
</g>
<!-- attr0aa37d256b4f42818bebdfbdfe6c6d29 -->
<g id="node12" class="node">
<title>attr0aa37d256b4f42818bebdfbdfe6c6d29</title>
<ellipse fill="none" stroke="black" cx="999.24" cy="-214" rx="59.59" ry="18"/>
<text text-anchor="middle" x="999.24" y="-210.3" font-family="Times New Roman,serif" font-size="14.00">Capitalization</text>
</g>
<!-- Nissan&#45;&#45;attr0aa37d256b4f42818bebdfbdfe6c6d29 -->
<g id="edge9" class="edge">
<title>Nissan&#45;&#45;attr0aa37d256b4f42818bebdfbdfe6c6d29</title>
<path fill="none" stroke="black" d="M941.02,-282.8C953.85,-267.86 972.31,-246.36 984.99,-231.6"/>
</g>
<!-- rel85e5215a5d484c99a85dd7da6ca7e22f -->
<g id="node18" class="node">
<title>rel85e5215a5d484c99a85dd7da6ca7e22f</title>
<polygon fill="lightgrey" stroke="lightgrey" points="1161.24,-232 1076.62,-214 1161.24,-196 1245.87,-214 1161.24,-232"/>
<text text-anchor="middle" x="1161.24" y="-210.3" font-family="Times New Roman,serif" font-size="14.00">Manufactures</text>
</g>
<!-- Nissan&#45;&#45;rel85e5215a5d484c99a85dd7da6ca7e22f -->
<g id="edge15" class="edge">
<title>Nissan&#45;&#45;rel85e5215a5d484c99a85dd7da6ca7e22f</title>
<path fill="none" stroke="black" d="M953.66,-290.08C998.1,-274.01 1085.48,-242.4 1131.42,-225.79"/>
<text text-anchor="middle" x="1061.74" y="-253.8" font-family="Times New Roman,serif" font-size="14.00">1</text>
</g>
<!-- Car -->
<g id="node13" class="node">
<title>Car</title>
<polygon fill="none" stroke="black" points="1188.24,-145 1134.24,-145 1134.24,-109 1188.24,-109 1188.24,-145"/>
<text text-anchor="middle" x="1161.24" y="-123.3" font-family="Times New Roman,serif" font-size="14.00">Car</text>
</g>
<!-- attr4ae5063461064787979d486c50c63512 -->
<g id="node14" class="node">
<title>attr4ae5063461064787979d486c50c63512</title>
<ellipse fill="none" stroke="black" cx="1020.24" cy="-54" rx="34.39" ry="18"/>
<text text-anchor="middle" x="1020.24" y="-50.3" font-family="Times New Roman,serif" font-size="14.00">Model</text>
</g>
<!-- Car&#45;&#45;attr4ae5063461064787979d486c50c63512 -->
<g id="edge10" class="edge">
<title>Car&#45;&#45;attr4ae5063461064787979d486c50c63512</title>
<path fill="none" stroke="black" d="M1134.06,-112.31C1108.13,-99.25 1069.44,-79.77 1044.52,-67.23"/>
</g>
<!-- attr4c95cfea4aa74b4fa2740817c82176ca -->
<g id="node15" class="node">
<title>attr4c95cfea4aa74b4fa2740817c82176ca</title>
<ellipse fill="none" stroke="black" cx="1161.24" cy="-54" rx="89.08" ry="18"/>
<text text-anchor="middle" x="1161.24" y="-50.3" font-family="Times New Roman,serif" font-size="14.00">DateOfManufacturing</text>
</g>
<!-- Car&#45;&#45;attr4c95cfea4aa74b4fa2740817c82176ca -->
<g id="edge11" class="edge">
<title>Car&#45;&#45;attr4c95cfea4aa74b4fa2740817c82176ca</title>
<path fill="none" stroke="black" d="M1161.24,-108.81C1161.24,-97.65 1161.24,-83.16 1161.24,-72.03"/>
</g>
<!-- attr18af008d8c31415d98478ffb40ca0aea -->
<g id="node16" class="node">
<title>attr18af008d8c31415d98478ffb40ca0aea</title>
<ellipse fill="none" stroke="black" stroke-dasharray="1,5" cx="1328.24" cy="-54" rx="59.59" ry="18"/>
<text text-anchor="middle" x="1328.24" y="-50.3" font-family="Times New Roman,serif" font-size="14.00">SerialNumber</text>
</g>
<!-- Car&#45;&#45;attr18af008d8c31415d98478ffb40ca0aea -->
<g id="edge12" class="edge">
<title>Car&#45;&#45;attr18af008d8c31415d98478ffb40ca0aea</title>
<path fill="none" stroke="black" d="M1188.45,-114.43C1217.56,-102.06 1263.77,-82.41 1295.01,-69.13"/>
</g>
<!-- rel223db5823e424375a9a16495c3bbb62b&#45;&#45;Car -->
<g id="edge14" class="edge">
<title>rel223db5823e424375a9a16495c3bbb62b&#45;&#45;Car</title>
<path fill="none" stroke="black" d="M571.28,-204.91C587.49,-201.91 606.2,-198.62 623.24,-196 818.43,-166.04 1054.94,-139.52 1134.02,-130.92"/>
<text text-anchor="middle" x="870.24" y="-166.8" font-family="Times New Roman,serif" font-size="14.00">0..n</text>
</g>
<!-- rel85e5215a5d484c99a85dd7da6ca7e22f&#45;&#45;Car -->
<g id="edge16" class="edge">
<title>rel85e5215a5d484c99a85dd7da6ca7e22f&#45;&#45;Car</title>
<path fill="none" stroke="black" d="M1161.24,-195.8C1161.24,-181.05 1161.24,-159.92 1161.24,-145.18"/>
<text text-anchor="middle" x="1172.24" y="-166.8" font-family="Times New Roman,serif" font-size="14.00">0..n</text>
</g>
<!-- rel5310c50c85504db39ea4d7da85fccc6c&#45;&#45;Car -->
<g id="edge18" class="edge">
<title>rel5310c50c85504db39ea4d7da85fccc6c&#45;&#45;Car</title>
<path fill="none" stroke="black" d="M1635.99,-205.04C1627.26,-201.85 1616.86,-198.38 1607.24,-196 1451.19,-157.38 1258.68,-136.98 1188.48,-130.4"/>
<text text-anchor="middle" x="1534.24" y="-166.8" font-family="Times New Roman,serif" font-size="14.00">0..n</text>
</g>
</g>
</svg>
